<svg width="749" height="750" viewBox="0 0 749 750" fill="none" xmlns="http://www.w3.org/2000/svg">
<path d="M374.5 0C581.331 0 749 167.893 749 375C749 582.107 581.331 750 374.5 750C167.669 750 0 582.107 0 375C0 167.893 167.669 0 374.5 0ZM374.5 14C175.419 14 14 175.608 14 375C14 574.392 175.419 736 374.5 736C573.581 736 735 574.392 735 375C735 175.608 573.581 14 374.5 14ZM349.227 610.116L334.44 693.974L358.766 698.263L356.273 712.395L317.817 705.613L335.095 607.625L349.227 610.116ZM432.897 704.729L418.766 707.22L401.488 609.231L415.62 606.74L432.897 704.729ZM301.615 599.997L297.68 609.735L297.531 609.882L239.444 666.716L269.717 678.947L264.342 692.252L219.464 674.12L219.829 673.196L223.251 664.554L223.329 664.355L223.481 664.208L281.567 607.374L251.355 595.167L256.73 581.862L301.615 599.997ZM485.434 566.444L479.922 583.182C484.866 581.944 489.603 582.233 494.102 584.096C500.031 586.519 504.475 591.204 507.46 598.024L509.425 602.514L496.278 608.268L494.313 603.778C492.986 600.745 491.106 598.781 488.709 597.755L488.699 597.751C486.3 596.695 483.699 596.744 480.817 598.005C477.935 599.266 476.134 601.145 475.281 603.624L475.277 603.633C474.405 606.09 474.572 608.805 475.899 611.838L497.375 660.904C498.701 663.933 500.589 665.92 503.007 666.986L503.456 667.165C505.715 667.993 508.166 667.861 510.873 666.676C513.76 665.412 515.57 663.55 516.438 661.108C517.294 658.608 517.115 655.873 515.789 652.845L513.824 648.355L526.971 642.602L528.936 647.091C531.904 653.873 532.329 660.314 530.106 666.35C527.879 672.398 523.343 676.883 516.627 679.822C509.948 682.745 503.578 683.033 497.588 680.587L497.583 680.585C491.641 678.123 487.198 673.439 484.229 666.657L462.754 617.591C459.769 610.771 459.342 604.327 461.585 598.327L461.804 597.764C463.458 593.669 466.179 590.318 469.929 587.705L453.726 580.323L451.688 579.395L462.907 574.484L463.323 574.69L472.092 579.004L474.782 569.682L474.912 569.23L486.134 564.318L485.434 566.444ZM511.842 667.329C511.656 667.419 511.467 667.507 511.273 667.592L510.695 667.832C510.887 667.757 511.08 667.677 511.273 667.593C511.467 667.508 511.656 667.42 511.842 667.329ZM229.055 558.389L228.667 559.105L181.382 646.705L180.798 647.784L169.518 638.319L169.917 637.598L178.443 622.22L163.473 609.658L149.759 620.688L149.118 621.202L137.837 611.736L138.803 610.975L217.01 549.321L217.649 548.818L229.055 558.389ZM559.557 527.122L565.477 569.891L625.118 598.016L626.479 598.657L614.962 609.017L614.362 608.737L567.911 587.129L568.637 592.456L597.592 624.643L586.924 634.239L520.379 560.267L531.047 550.669L552.688 574.727L547.668 536.301L547.6 535.779L559.298 525.255L559.557 527.122ZM174.585 600.25L185.782 609.646L205.071 575.366L174.585 600.25ZM423.025 587.167L412.99 602.482L412.754 602.845L401.18 604.886L401.923 603.178L408.313 588.505L408.527 588.013L424.293 585.232L423.025 587.167ZM493.018 599.751H493.019H493.018ZM375 175C485.457 175 575 264.543 575 375C575 485.457 485.457 575 375 575C264.543 575 175 485.457 175 375C175 264.543 264.543 175 375 175ZM163.394 479.662L162.845 480.206L110.088 532.364L181.638 512.756L182.382 512.551L189.248 524.443L103.079 574.193L96.2285 562.329L141.129 536.406L90.0547 550.15L89.3125 550.351L84.125 541.364L84.668 540.821L122.105 503.464L77.209 529.386L70.3584 517.521L156.528 467.771L163.394 479.662ZM375 189C317.585 189 266.248 215.016 232.129 255.9C238.501 256.105 245.454 258.699 250.28 260.826C252.615 261.855 254.678 262.882 256.261 263.707C261.779 261.078 268.953 257.829 275.563 254.959C279.582 253.214 283.437 251.589 286.623 250.314C287.876 249.813 289.103 249.335 290.236 248.914L294.693 233L301.34 234.723C306.735 236.121 317.327 239.741 327.065 240.715C340.579 242.066 357.614 246.084 371.524 252.059C378.464 255.039 384.992 258.662 389.945 262.955C394.811 267.172 399.042 272.832 399.301 279.876C399.704 290.842 392.987 299.02 383.497 304.867C374.096 310.66 360.792 315 344.827 318.402C339.438 319.551 336.662 323.105 331.02 328.12L325.334 333.175L320.77 327.089C319.344 325.189 316.534 321.597 314.776 319.681C314.609 319.611 314.398 319.525 314.136 319.426C313.001 318.994 311.373 318.448 309.259 317.78C304.999 316.435 299.467 314.812 293.026 312.841C281.633 309.353 267.796 304.896 256.644 299.866C253.688 301.472 250.256 303.101 246.75 304.466C241.975 306.324 236.334 307.984 231.333 307.984H217.117L225.784 296.717C228.106 293.698 230.078 288.458 230.356 282.605C230.632 276.823 229.222 271.334 225.93 267.337L224.531 265.639C202.184 296.333 189 334.127 189 375C189 410.984 199.22 444.581 216.913 473.048C218.047 472.393 219.131 471.758 220.212 471.077C224.482 468.39 225.874 466.646 226.151 465.628C226.207 465.423 226.312 464.881 226.481 463.682C226.589 462.916 226.858 460.855 227.045 459.55C227.51 456.294 228.203 452.152 229.48 447.63C232.039 438.571 237.005 427.774 247.423 419.092C262.316 406.681 299.618 383.543 317.763 372.491L321.853 370L325.656 372.909C327.628 374.417 328.997 376.582 329.916 378.603C330.898 380.763 331.63 383.339 332.008 386.225C332.595 390.713 332.341 396.074 330.721 402.068C333.425 403.785 336.617 405.744 339.878 407.792C342.417 409.387 344.956 411.013 347.14 412.517C349.216 413.946 351.362 415.527 352.854 417.02C354.85 419.015 358.766 422.324 361.562 427.278C364.5 432.482 366.155 439.136 365.905 448.482C365.906 448.518 365.911 448.575 365.978 448.708C366.072 448.896 366.276 449.204 366.685 449.627C367.093 450.049 367.603 450.48 368.226 450.958C368.539 451.198 368.841 451.42 369.187 451.675C369.497 451.904 369.904 452.205 370.277 452.504C371.257 453.287 372.612 454.356 373.911 455.374L377.202 457.944L379.664 459.859L379.887 462.971C380.191 467.226 379.808 473.745 377.681 480.113C375.555 486.476 371.348 493.606 363.353 497.318C355.631 500.904 350.357 502.883 346.298 507.28C335.848 518.602 338.182 541.74 337.556 557.229C349.651 559.701 362.174 561 375 561C418.797 561 459.056 545.859 490.835 520.531C484.329 496.684 474.167 462.689 460.266 432.569C452.975 416.773 447.193 410.08 443.254 407.079C439.487 404.209 437.447 404.433 433.424 403.427C432.908 403.298 431.707 403.169 429.562 403.262C427.521 403.35 425.05 403.613 422.205 404.007C416.306 404.823 410.081 405.994 403.186 407.055C386.792 409.577 369.451 400.122 357.951 384.241C348.999 371.878 344.851 359.156 344.625 352.369L344.5 348.62L347.553 346.439C354.688 341.343 362.545 338.036 370.186 335.424C374.008 334.117 377.864 332.956 381.574 331.847C385.326 330.725 388.915 329.659 392.407 328.495C394.418 327.825 396.121 327.324 397.553 326.914C399.045 326.486 400.053 326.209 400.967 325.913C402.012 325.575 402.672 325.292 403.241 324.933C414.789 304.684 423.042 298.348 430.661 294.792C442.038 289.483 452.332 286.249 458.768 284.276C459.869 276.326 461.312 267.542 461.637 262.67C461.866 259.227 462.687 254.241 463.383 250.392C463.741 248.407 464.086 246.618 464.341 245.326C464.469 244.679 464.575 244.155 464.649 243.79C464.686 243.608 464.715 243.465 464.735 243.367C464.745 243.318 464.753 243.28 464.759 243.254C464.762 243.241 464.764 243.23 464.766 243.223C464.766 243.219 464.766 243.216 464.767 243.214L464.768 243.212V243.21L466.06 237L472.367 237.676C478.649 238.349 483.305 242.522 486.521 246.64C489.835 250.884 492.51 256.194 494.646 261.318C498.902 271.535 501.704 282.808 502.837 286.66C502.837 286.66 502.906 286.877 503.132 287.382C503.345 287.858 503.641 288.47 504.031 289.221C504.812 290.723 505.881 292.62 507.202 294.844C509.839 299.283 513.362 304.821 517.314 310.731C525.233 322.573 534.657 335.579 541.888 344.023C542.91 345.17 544.914 346.736 548.303 349.319C551.431 351.705 555.322 354.669 559.038 358.158C559.476 358.569 559.915 358.991 560.354 359.424C552.441 263.988 472.479 189 375 189ZM318.193 388.642C298.669 400.65 268.731 419.56 256.386 429.848C248.804 436.166 245.02 444.119 242.953 451.435C241.918 455.1 241.33 458.552 240.904 461.53C240.646 463.342 240.567 464.059 240.345 465.635C240.184 466.777 239.976 468.142 239.657 469.312C237.811 476.08 231.812 480.319 227.668 482.927C226.723 483.521 225.733 484.109 224.762 484.677C248.844 517.61 283.493 542.326 323.719 553.839C324.38 534.931 323.122 511.747 336.011 497.784C342.452 490.806 351.178 487.536 357.456 484.621C360.66 483.133 362.953 480.014 364.402 475.677C365.411 472.657 365.846 469.491 365.951 466.921C364.439 465.737 362.728 464.393 361.531 463.436C361.318 463.266 358.514 461.316 356.624 459.362C354.468 457.135 351.904 453.504 351.904 448.47V448.367L351.907 448.264C352.129 440.712 350.788 436.672 349.371 434.161C347.793 431.365 345.959 429.925 342.954 426.92C342.447 426.412 341.238 425.451 339.2 424.048C337.269 422.718 334.933 421.219 332.431 419.647C327.594 416.609 321.914 413.171 318.39 410.704L313.889 407.554L315.88 402.433C318.145 396.608 318.517 391.925 318.193 388.642ZM663.942 497.39C670.354 501.091 674.515 506.026 676.304 512.204C678.096 518.395 677.101 524.696 673.436 531.045C669.79 537.359 664.832 541.367 658.558 542.948L658.552 542.95C652.307 544.49 645.953 543.353 639.542 539.651L573.265 501.387L580.439 488.959L646.717 527.225C649.58 528.877 652.278 529.359 654.857 528.784L655.325 528.662C657.635 527.99 659.531 526.429 661.009 523.87C662.585 521.14 662.938 518.567 662.188 516.087C661.396 513.566 659.63 511.47 656.768 509.817L590.49 471.552L597.665 459.125L663.942 497.39ZM640.042 538.786L640.625 539.115C640.431 539.008 640.237 538.897 640.042 538.785L574.631 501.021L640.042 538.786ZM476.509 256.662C476.074 259.331 475.721 261.861 475.605 263.602C475.193 269.782 472.98 283.048 472.069 290.486L471.526 294.921L467.275 296.296C461.281 298.235 449.901 301.263 436.581 307.479C432.359 309.45 425.798 313.325 414.727 333.061L414.119 334.143L413.177 334.95C410.503 337.242 407.956 338.366 405.275 339.233C404.065 339.625 402.696 340.004 401.408 340.373C400.059 340.76 398.573 341.197 396.835 341.776C393.092 343.024 389.272 344.157 385.586 345.26C381.859 346.374 378.247 347.463 374.715 348.671C369.103 350.589 363.91 352.739 359.231 355.525C360.413 360.225 363.414 367.915 369.291 376.03C378.791 389.149 391.45 394.695 401.057 393.217C407.161 392.278 414.437 390.949 420.287 390.14C423.317 389.721 426.283 389.391 428.961 389.275C431.535 389.165 434.334 389.224 436.818 389.845C438.795 390.339 445.005 390.813 451.738 395.942C458.299 400.941 465.267 409.999 472.977 426.702C486.129 455.199 495.951 486.789 502.553 510.37C535.72 479.106 557.4 435.791 560.589 387.421C560.189 378.71 555.472 374.014 549.454 368.363C546.337 365.436 542.998 362.879 539.814 360.452C536.914 358.241 533.527 355.706 531.376 353.271L531.341 353.231L531.307 353.191C523.543 344.134 513.741 330.572 505.678 318.515C501.631 312.463 497.965 306.708 495.165 301.994C493.767 299.641 492.555 297.497 491.609 295.677C490.732 293.988 489.863 292.166 489.405 290.611C488.038 285.963 485.59 275.986 481.722 266.703C480.095 262.799 478.34 259.341 476.509 256.662ZM572.313 462.666C575.573 461.636 578.846 462.098 582.066 463.957C585.189 465.76 587.211 468.27 588.036 471.475L588.112 471.787C588.857 475.036 588.38 478.145 586.694 481.064C585.009 483.983 582.539 485.982 579.325 487.03L579.317 487.033L579.309 487.035C576.018 488.044 572.728 487.575 569.505 485.714C566.282 483.853 564.244 481.247 563.508 477.906L563.384 477.285C562.835 474.191 563.342 471.266 564.907 468.555C566.595 465.631 569.078 463.657 572.313 462.665V462.666ZM580.056 485.691C579.719 485.833 579.373 485.963 579.016 486.079L579.015 486.08C579.372 485.964 579.719 485.833 580.056 485.691ZM585.827 480.565C585.635 480.898 585.431 481.218 585.217 481.524C585.322 481.373 585.426 481.219 585.526 481.062L585.828 480.564L585.827 480.565ZM564.702 478.526C564.73 478.617 564.759 478.707 564.789 478.797H564.79C564.746 478.666 564.705 478.534 564.666 478.4C564.678 478.442 564.689 478.485 564.702 478.526ZM577.657 471.594C576.651 471.013 575.709 470.918 574.758 471.239L574.738 471.246C573.737 471.562 573.025 472.131 572.544 472.964C572.086 473.756 571.94 474.663 572.157 475.743C572.355 476.727 572.908 477.496 573.914 478.077C574.92 478.658 575.862 478.752 576.812 478.432C577.848 478.082 578.575 477.489 579.057 476.655C579.537 475.823 579.675 474.921 579.447 473.896C579.236 472.944 578.675 472.181 577.657 471.594ZM571.1 475.463C571.119 475.62 571.144 475.779 571.177 475.94H571.178C571.145 475.779 571.12 475.62 571.101 475.463H571.1ZM574.223 470.364C574.294 470.339 574.366 470.315 574.438 470.292H574.438C574.365 470.315 574.293 470.339 574.223 470.364ZM203.686 161.395C142.845 211.298 104 287.279 104 372.402C104 383.154 104.62 393.758 105.824 404.179L91.917 405.786C90.651 394.833 90 383.692 90 372.402C90.0001 282.926 130.85 203.03 194.807 150.57L203.686 161.395ZM554.193 150.57C618.15 203.03 659 282.926 659 372.402C659 383.692 658.349 394.833 657.083 405.786L643.176 404.179C644.38 393.758 645 383.154 645 372.402C645 287.279 606.155 211.298 545.314 161.395L554.193 150.57ZM301.621 260.182L297.675 261.168C296.981 261.341 295.012 262.037 291.824 263.312C288.807 264.52 285.085 266.087 281.139 267.801C273.231 271.234 264.599 275.176 259.154 277.856L255.76 279.527L252.506 277.604L252.504 277.603L252.503 277.604L252.502 277.603C252.499 277.601 252.494 277.598 252.488 277.595C252.47 277.584 252.438 277.565 252.394 277.539C252.304 277.487 252.163 277.407 251.976 277.301C251.6 277.089 251.038 276.778 250.328 276.401C248.902 275.645 246.907 274.638 244.635 273.637C244.29 273.485 243.944 273.337 243.599 273.19C244.284 276.585 244.496 280.004 244.341 283.271C244.221 285.791 243.88 288.305 243.34 290.743C246.876 289.257 250.216 287.513 252.644 286.02L255.924 284.001L259.385 285.691C269.899 290.826 284.468 295.579 297.125 299.454C303.305 301.346 309.171 303.071 313.475 304.43C315.642 305.114 317.587 305.76 319.116 306.342C319.875 306.631 320.648 306.948 321.345 307.288C321.802 307.512 322.909 308.059 323.909 308.99L324.107 309.182L324.586 309.674C325.374 310.503 326.268 311.53 327.166 312.606C330.827 309.439 335.686 306.036 341.909 304.71C357.367 301.416 368.805 297.476 376.153 292.948C383.412 288.475 385.453 284.29 385.31 280.391C385.256 278.926 384.308 276.595 380.776 273.534C377.333 270.55 372.246 267.606 365.999 264.923C353.537 259.57 337.915 255.87 325.673 254.646C318.286 253.907 310.186 251.797 304.426 250.163L301.621 260.182ZM279.144 56.0342C285.775 53.9958 291.79 54.4038 297.1 57.3613C302.442 60.3014 306.129 65.2048 308.202 71.9492L312.309 85.3066C313.673 89.7474 313.973 93.9991 313.175 98.043L313.177 98.0439C312.733 100.348 311.947 102.488 310.83 104.462C312.601 105.084 314.225 105.969 315.692 107.123C318.61 109.372 320.658 112.474 321.856 116.373L330.458 144.356L316.74 148.572L308.14 120.589C307.337 117.979 305.944 116.22 303.998 115.189L303.987 115.185L304.466 114.306L303.987 115.184C302.093 114.15 299.862 113.979 297.205 114.796L286.977 117.939L298.148 154.287L284.433 158.503L255.199 63.3936L279.144 56.0342ZM481.233 59.46L459.105 131.431C456.93 138.507 453.05 143.666 447.428 146.79C441.794 149.92 435.43 150.359 428.422 148.204L420.508 145.771L424.725 132.055L432.64 134.488C435.648 135.413 438.232 135.184 440.48 133.904C442.765 132.569 444.417 130.378 445.39 127.214L467.517 55.2432L481.233 59.46ZM429.351 147.438C429.423 147.458 429.496 147.476 429.568 147.496C429.286 147.417 429.001 147.336 428.716 147.248L429.351 147.438ZM382.238 42.2979L402.323 139.798L402.57 141H387.845L387.688 140.19L384.334 122.93H364.791L361.375 140.194L361.215 141H346.489L346.739 139.796L367.02 42.2959L367.186 41.5H382.074L382.238 42.2979ZM367.257 108.58H381.873L374.615 69.9219L367.257 108.58ZM290.168 70.3066C288.233 69.1611 285.995 68.9399 283.359 69.75L273.132 72.8945L282.761 104.223L292.989 101.079C295.625 100.269 297.353 98.8298 298.311 96.7949L298.315 96.7832C299.322 94.7099 299.449 92.3143 298.591 89.5234L294.485 76.165C293.628 73.3741 292.177 71.4636 290.18 70.3135L290.169 70.3076L290.168 70.3066ZM307.246 72.2432L311.353 85.6016C311.377 85.6808 311.398 85.7607 311.422 85.8398L311.353 85.6006L307.247 72.2432C307.186 72.0449 307.123 71.8481 307.06 71.6533C307.123 71.8481 307.185 72.0449 307.246 72.2432ZM295.704 57.7588C296.011 57.9097 296.315 58.0691 296.617 58.2373H296.618C296.461 58.1497 296.303 58.0644 296.145 57.9814C295.998 57.905 295.851 57.8312 295.704 57.7588ZM295.134 57.4893C294.989 57.4237 294.843 57.3598 294.697 57.2979C294.843 57.3598 294.989 57.4236 295.134 57.4893ZM392.729 24.4932L380.187 37.834L379.891 38.1494H368.138L369.166 36.5967L378.008 23.2559L378.304 22.8086H394.312L392.729 24.4932Z" fill="#00A79E"/>
</svg>
