<svg width="1189" height="459" viewBox="0 0 1189 459" fill="none" xmlns="http://www.w3.org/2000/svg">
<path d="M687.161 0.0371224C711.47 -0.65856 734.455 8.51537 753.635 26.1322C777.893 48.4145 788.513 77.1745 788.004 107.466C787.517 136.404 777.019 165.534 761.916 192.528C738.523 234.337 700.87 276.742 656.254 314.585C695.934 338.65 737.953 357.796 778.464 368.983C912.486 405.995 1045.39 387.589 1135.13 286.418L1189 334.644C1074.99 463.17 909.797 480.426 759.337 438.874C702.628 423.212 645.541 395.103 594.5 361.07C543.46 395.103 486.373 423.212 429.663 438.874C279.203 480.426 114.01 463.17 0 334.644L53.867 286.418C143.612 387.589 276.514 405.995 410.536 368.983C451.046 357.796 493.062 338.649 532.742 314.585C488.126 276.743 450.476 234.337 427.084 192.528C411.981 165.534 401.483 136.404 400.996 107.466C400.487 77.1745 411.107 48.4145 435.365 26.1322C454.472 8.58196 477.363 -0.663859 501.647 0.0371224C525.242 0.71846 546.434 10.6543 563.635 24.4806C574.936 33.5647 585.139 44.791 594.021 57.6115C603.05 44.7176 613.422 33.4468 624.891 24.3438C642.249 10.5658 663.549 0.713108 687.161 0.0371224ZM484.051 79.6249C461.834 100.032 478.02 135.634 489.979 157.009C510.44 193.578 547.609 234.554 594.5 271.672C641.391 234.554 678.561 193.578 699.021 157.009C710.98 135.634 727.166 100.032 704.949 79.6249C669.481 47.0467 605.082 127.129 593.854 147.378C582.848 127.263 519.291 47.257 484.051 79.6249Z" fill="black"/>
</svg>
